<?xml version="1.0" encoding="utf-8" standalone="no"?>
<!DOCTYPE svg PUBLIC "-//W3C//DTD SVG 1.1//EN"
  "http://www.w3.org/Graphics/SVG/1.1/DTD/svg11.dtd">
<!-- Created with matplotlib (http://matplotlib.org/) -->
<svg height="345.6pt" version="1.1" viewBox="0 0 460.8 345.6" width="460.8pt" xmlns="http://www.w3.org/2000/svg" xmlns:xlink="http://www.w3.org/1999/xlink">
 <defs>
  <style type="text/css">
*{stroke-linecap:butt;stroke-linejoin:round;}
  </style>
 </defs>
 <g id="figure_1">
  <g id="patch_1">
   <path d="M 0 345.6 
L 460.8 345.6 
L 460.8 0 
L 0 0 
z
" style="fill:#ffffff;"/>
  </g>
  <g id="axes_1">
   <g id="patch_2">
    <path d="M 57.6 162.432 
L 414.72 162.432 
L 414.72 41.472 
L 57.6 41.472 
z
" style="fill:#ffffff;"/>
   </g>
   <g id="matplotlib.axis_1">
    <g id="xtick_1">
     <g id="line2d_1">
      <defs>
       <path d="M 0 0 
L 0 3.5 
" id="m586a817011" style="stroke:#000000;stroke-width:0.8;"/>
      </defs>
      <g>
       <use style="stroke:#000000;stroke-width:0.8;" x="73.832727" xlink:href="#m586a817011" y="162.432"/>
      </g>
     </g>
     <g id="text_1">
      <!-- 0 -->
      <defs>
       <path d="M 31.78125 66.40625 
Q 24.171875 66.40625 20.328125 58.90625 
Q 16.5 51.421875 16.5 36.375 
Q 16.5 21.390625 20.328125 13.890625 
Q 24.171875 6.390625 31.78125 6.390625 
Q 39.453125 6.390625 43.28125 13.890625 
Q 47.125 21.390625 47.125 36.375 
Q 47.125 51.421875 43.28125 58.90625 
Q 39.453125 66.40625 31.78125 66.40625 
z
M 31.78125 74.21875 
Q 44.046875 74.21875 50.515625 64.515625 
Q 56.984375 54.828125 56.984375 36.375 
Q 56.984375 17.96875 50.515625 8.265625 
Q 44.046875 -1.421875 31.78125 -1.421875 
Q 19.53125 -1.421875 13.0625 8.265625 
Q 6.59375 17.96875 6.59375 36.375 
Q 6.59375 54.828125 13.0625 64.515625 
Q 19.53125 74.21875 31.78125 74.21875 
z
" id="DejaVuSans-30"/>
      </defs>
      <g transform="translate(70.651477 177.030437)scale(0.1 -0.1)">
       <use xlink:href="#DejaVuSans-30"/>
      </g>
     </g>
    </g>
    <g id="xtick_2">
     <g id="line2d_2">
      <g>
       <use style="stroke:#000000;stroke-width:0.8;" x="138.763636" xlink:href="#m586a817011" y="162.432"/>
      </g>
     </g>
     <g id="text_2">
      <!-- 1 -->
      <defs>
       <path d="M 12.40625 8.296875 
L 28.515625 8.296875 
L 28.515625 63.921875 
L 10.984375 60.40625 
L 10.984375 69.390625 
L 28.421875 72.90625 
L 38.28125 72.90625 
L 38.28125 8.296875 
L 54.390625 8.296875 
L 54.390625 0 
L 12.40625 0 
z
" id="DejaVuSans-31"/>
      </defs>
      <g transform="translate(135.582386 177.030437)scale(0.1 -0.1)">
       <use xlink:href="#DejaVuSans-31"/>
      </g>
     </g>
    </g>
    <g id="xtick_3">
     <g id="line2d_3">
      <g>
       <use style="stroke:#000000;stroke-width:0.8;" x="203.694545" xlink:href="#m586a817011" y="162.432"/>
      </g>
     </g>
     <g id="text_3">
      <!-- 2 -->
      <defs>
       <path d="M 19.1875 8.296875 
L 53.609375 8.296875 
L 53.609375 0 
L 7.328125 0 
L 7.328125 8.296875 
Q 12.9375 14.109375 22.625 23.890625 
Q 32.328125 33.6875 34.8125 36.53125 
Q 39.546875 41.84375 41.421875 45.53125 
Q 43.3125 49.21875 43.3125 52.78125 
Q 43.3125 58.59375 39.234375 62.25 
Q 35.15625 65.921875 28.609375 65.921875 
Q 23.96875 65.921875 18.8125 64.3125 
Q 13.671875 62.703125 7.8125 59.421875 
L 7.8125 69.390625 
Q 13.765625 71.78125 18.9375 73 
Q 24.125 74.21875 28.421875 74.21875 
Q 39.75 74.21875 46.484375 68.546875 
Q 53.21875 62.890625 53.21875 53.421875 
Q 53.21875 48.921875 51.53125 44.890625 
Q 49.859375 40.875 45.40625 35.40625 
Q 44.1875 33.984375 37.640625 27.21875 
Q 31.109375 20.453125 19.1875 8.296875 
z
" id="DejaVuSans-32"/>
      </defs>
      <g transform="translate(200.513295 177.030437)scale(0.1 -0.1)">
       <use xlink:href="#DejaVuSans-32"/>
      </g>
     </g>
    </g>
    <g id="xtick_4">
     <g id="line2d_4">
      <g>
       <use style="stroke:#000000;stroke-width:0.8;" x="268.625455" xlink:href="#m586a817011" y="162.432"/>
      </g>
     </g>
     <g id="text_4">
      <!-- 3 -->
      <defs>
       <path d="M 40.578125 39.3125 
Q 47.65625 37.796875 51.625 33 
Q 55.609375 28.21875 55.609375 21.1875 
Q 55.609375 10.40625 48.1875 4.484375 
Q 40.765625 -1.421875 27.09375 -1.421875 
Q 22.515625 -1.421875 17.65625 -0.515625 
Q 12.796875 0.390625 7.625 2.203125 
L 7.625 11.71875 
Q 11.71875 9.328125 16.59375 8.109375 
Q 21.484375 6.890625 26.8125 6.890625 
Q 36.078125 6.890625 40.9375 10.546875 
Q 45.796875 14.203125 45.796875 21.1875 
Q 45.796875 27.640625 41.28125 31.265625 
Q 36.765625 34.90625 28.71875 34.90625 
L 20.21875 34.90625 
L 20.21875 43.015625 
L 29.109375 43.015625 
Q 36.375 43.015625 40.234375 45.921875 
Q 44.09375 48.828125 44.09375 54.296875 
Q 44.09375 59.90625 40.109375 62.90625 
Q 36.140625 65.921875 28.71875 65.921875 
Q 24.65625 65.921875 20.015625 65.03125 
Q 15.375 64.15625 9.8125 62.3125 
L 9.8125 71.09375 
Q 15.4375 72.65625 20.34375 73.4375 
Q 25.25 74.21875 29.59375 74.21875 
Q 40.828125 74.21875 47.359375 69.109375 
Q 53.90625 64.015625 53.90625 55.328125 
Q 53.90625 49.265625 50.4375 45.09375 
Q 46.96875 40.921875 40.578125 39.3125 
z
" id="DejaVuSans-33"/>
      </defs>
      <g transform="translate(265.444205 177.030437)scale(0.1 -0.1)">
       <use xlink:href="#DejaVuSans-33"/>
      </g>
     </g>
    </g>
    <g id="xtick_5">
     <g id="line2d_5">
      <g>
       <use style="stroke:#000000;stroke-width:0.8;" x="333.556364" xlink:href="#m586a817011" y="162.432"/>
      </g>
     </g>
     <g id="text_5">
      <!-- 4 -->
      <defs>
       <path d="M 37.796875 64.3125 
L 12.890625 25.390625 
L 37.796875 25.390625 
z
M 35.203125 72.90625 
L 47.609375 72.90625 
L 47.609375 25.390625 
L 58.015625 25.390625 
L 58.015625 17.1875 
L 47.609375 17.1875 
L 47.609375 0 
L 37.796875 0 
L 37.796875 17.1875 
L 4.890625 17.1875 
L 4.890625 26.703125 
z
" id="DejaVuSans-34"/>
      </defs>
      <g transform="translate(330.375114 177.030437)scale(0.1 -0.1)">
       <use xlink:href="#DejaVuSans-34"/>
      </g>
     </g>
    </g>
    <g id="xtick_6">
     <g id="line2d_6">
      <g>
       <use style="stroke:#000000;stroke-width:0.8;" x="398.487273" xlink:href="#m586a817011" y="162.432"/>
      </g>
     </g>
     <g id="text_6">
      <!-- 5 -->
      <defs>
       <path d="M 10.796875 72.90625 
L 49.515625 72.90625 
L 49.515625 64.59375 
L 19.828125 64.59375 
L 19.828125 46.734375 
Q 21.96875 47.46875 24.109375 47.828125 
Q 26.265625 48.1875 28.421875 48.1875 
Q 40.625 48.1875 47.75 41.5 
Q 54.890625 34.8125 54.890625 23.390625 
Q 54.890625 11.625 47.5625 5.09375 
Q 40.234375 -1.421875 26.90625 -1.421875 
Q 22.3125 -1.421875 17.546875 -0.640625 
Q 12.796875 0.140625 7.71875 1.703125 
L 7.71875 11.625 
Q 12.109375 9.234375 16.796875 8.0625 
Q 21.484375 6.890625 26.703125 6.890625 
Q 35.15625 6.890625 40.078125 11.328125 
Q 45.015625 15.765625 45.015625 23.390625 
Q 45.015625 31 40.078125 35.4375 
Q 35.15625 39.890625 26.703125 39.890625 
Q 22.75 39.890625 18.8125 39.015625 
Q 14.890625 38.140625 10.796875 36.28125 
z
" id="DejaVuSans-35"/>
      </defs>
      <g transform="translate(395.306023 177.030437)scale(0.1 -0.1)">
       <use xlink:href="#DejaVuSans-35"/>
      </g>
     </g>
    </g>
   </g>
   <g id="matplotlib.axis_2">
    <g id="ytick_1">
     <g id="line2d_7">
      <defs>
       <path d="M 0 0 
L -3.5 0 
" id="m3738303ea7" style="stroke:#000000;stroke-width:0.8;"/>
      </defs>
      <g>
       <use style="stroke:#000000;stroke-width:0.8;" x="57.6" xlink:href="#m3738303ea7" y="150.116564"/>
      </g>
     </g>
     <g id="text_7">
      <!-- −0.5 -->
      <defs>
       <path d="M 10.59375 35.5 
L 73.1875 35.5 
L 73.1875 27.203125 
L 10.59375 27.203125 
z
" id="DejaVuSans-2212"/>
       <path d="M 10.6875 12.40625 
L 21 12.40625 
L 21 0 
L 10.6875 0 
z
" id="DejaVuSans-2e"/>
      </defs>
      <g transform="translate(26.317187 153.915782)scale(0.1 -0.1)">
       <use xlink:href="#DejaVuSans-2212"/>
       <use x="83.789062" xlink:href="#DejaVuSans-30"/>
       <use x="147.412109" xlink:href="#DejaVuSans-2e"/>
       <use x="179.199219" xlink:href="#DejaVuSans-35"/>
      </g>
     </g>
    </g>
    <g id="ytick_2">
     <g id="line2d_8">
      <g>
       <use style="stroke:#000000;stroke-width:0.8;" x="57.6" xlink:href="#m3738303ea7" y="115.734436"/>
      </g>
     </g>
     <g id="text_8">
      <!-- 0.0 -->
      <g transform="translate(34.696875 119.533655)scale(0.1 -0.1)">
       <use xlink:href="#DejaVuSans-30"/>
       <use x="63.623047" xlink:href="#DejaVuSans-2e"/>
       <use x="95.410156" xlink:href="#DejaVuSans-30"/>
      </g>
     </g>
    </g>
    <g id="ytick_3">
     <g id="line2d_9">
      <g>
       <use style="stroke:#000000;stroke-width:0.8;" x="57.6" xlink:href="#m3738303ea7" y="81.352309"/>
      </g>
     </g>
     <g id="text_9">
      <!-- 0.5 -->
      <g transform="translate(34.696875 85.151528)scale(0.1 -0.1)">
       <use xlink:href="#DejaVuSans-30"/>
       <use x="63.623047" xlink:href="#DejaVuSans-2e"/>
       <use x="95.410156" xlink:href="#DejaVuSans-35"/>
      </g>
     </g>
    </g>
    <g id="ytick_4">
     <g id="line2d_10">
      <g>
       <use style="stroke:#000000;stroke-width:0.8;" x="57.6" xlink:href="#m3738303ea7" y="46.970182"/>
      </g>
     </g>
     <g id="text_10">
      <!-- 1.0 -->
      <g transform="translate(34.696875 50.769401)scale(0.1 -0.1)">
       <use xlink:href="#DejaVuSans-31"/>
       <use x="63.623047" xlink:href="#DejaVuSans-2e"/>
       <use x="95.410156" xlink:href="#DejaVuSans-30"/>
      </g>
     </g>
    </g>
    <g id="text_11">
     <!-- Damped oscillation -->
     <defs>
      <path d="M 19.671875 64.796875 
L 19.671875 8.109375 
L 31.59375 8.109375 
Q 46.6875 8.109375 53.6875 14.9375 
Q 60.6875 21.78125 60.6875 36.53125 
Q 60.6875 51.171875 53.6875 57.984375 
Q 46.6875 64.796875 31.59375 64.796875 
z
M 9.8125 72.90625 
L 30.078125 72.90625 
Q 51.265625 72.90625 61.171875 64.09375 
Q 71.09375 55.28125 71.09375 36.53125 
Q 71.09375 17.671875 61.125 8.828125 
Q 51.171875 0 30.078125 0 
L 9.8125 0 
z
" id="DejaVuSans-44"/>
      <path d="M 34.28125 27.484375 
Q 23.390625 27.484375 19.1875 25 
Q 14.984375 22.515625 14.984375 16.5 
Q 14.984375 11.71875 18.140625 8.90625 
Q 21.296875 6.109375 26.703125 6.109375 
Q 34.1875 6.109375 38.703125 11.40625 
Q 43.21875 16.703125 43.21875 25.484375 
L 43.21875 27.484375 
z
M 52.203125 31.203125 
L 52.203125 0 
L 43.21875 0 
L 43.21875 8.296875 
Q 40.140625 3.328125 35.546875 0.953125 
Q 30.953125 -1.421875 24.3125 -1.421875 
Q 15.921875 -1.421875 10.953125 3.296875 
Q 6 8.015625 6 15.921875 
Q 6 25.140625 12.171875 29.828125 
Q 18.359375 34.515625 30.609375 34.515625 
L 43.21875 34.515625 
L 43.21875 35.40625 
Q 43.21875 41.609375 39.140625 45 
Q 35.0625 48.390625 27.6875 48.390625 
Q 23 48.390625 18.546875 47.265625 
Q 14.109375 46.140625 10.015625 43.890625 
L 10.015625 52.203125 
Q 14.9375 54.109375 19.578125 55.046875 
Q 24.21875 56 28.609375 56 
Q 40.484375 56 46.34375 49.84375 
Q 52.203125 43.703125 52.203125 31.203125 
z
" id="DejaVuSans-61"/>
      <path d="M 52 44.1875 
Q 55.375 50.25 60.0625 53.125 
Q 64.75 56 71.09375 56 
Q 79.640625 56 84.28125 50.015625 
Q 88.921875 44.046875 88.921875 33.015625 
L 88.921875 0 
L 79.890625 0 
L 79.890625 32.71875 
Q 79.890625 40.578125 77.09375 44.375 
Q 74.3125 48.1875 68.609375 48.1875 
Q 61.625 48.1875 57.5625 43.546875 
Q 53.515625 38.921875 53.515625 30.90625 
L 53.515625 0 
L 44.484375 0 
L 44.484375 32.71875 
Q 44.484375 40.625 41.703125 44.40625 
Q 38.921875 48.1875 33.109375 48.1875 
Q 26.21875 48.1875 22.15625 43.53125 
Q 18.109375 38.875 18.109375 30.90625 
L 18.109375 0 
L 9.078125 0 
L 9.078125 54.6875 
L 18.109375 54.6875 
L 18.109375 46.1875 
Q 21.1875 51.21875 25.484375 53.609375 
Q 29.78125 56 35.6875 56 
Q 41.65625 56 45.828125 52.96875 
Q 50 49.953125 52 44.1875 
z
" id="DejaVuSans-6d"/>
      <path d="M 18.109375 8.203125 
L 18.109375 -20.796875 
L 9.078125 -20.796875 
L 9.078125 54.6875 
L 18.109375 54.6875 
L 18.109375 46.390625 
Q 20.953125 51.265625 25.265625 53.625 
Q 29.59375 56 35.59375 56 
Q 45.5625 56 51.78125 48.09375 
Q 58.015625 40.1875 58.015625 27.296875 
Q 58.015625 14.40625 51.78125 6.484375 
Q 45.5625 -1.421875 35.59375 -1.421875 
Q 29.59375 -1.421875 25.265625 0.953125 
Q 20.953125 3.328125 18.109375 8.203125 
z
M 48.6875 27.296875 
Q 48.6875 37.203125 44.609375 42.84375 
Q 40.53125 48.484375 33.40625 48.484375 
Q 26.265625 48.484375 22.1875 42.84375 
Q 18.109375 37.203125 18.109375 27.296875 
Q 18.109375 17.390625 22.1875 11.75 
Q 26.265625 6.109375 33.40625 6.109375 
Q 40.53125 6.109375 44.609375 11.75 
Q 48.6875 17.390625 48.6875 27.296875 
z
" id="DejaVuSans-70"/>
      <path d="M 56.203125 29.59375 
L 56.203125 25.203125 
L 14.890625 25.203125 
Q 15.484375 15.921875 20.484375 11.0625 
Q 25.484375 6.203125 34.421875 6.203125 
Q 39.59375 6.203125 44.453125 7.46875 
Q 49.3125 8.734375 54.109375 11.28125 
L 54.109375 2.78125 
Q 49.265625 0.734375 44.1875 -0.34375 
Q 39.109375 -1.421875 33.890625 -1.421875 
Q 20.796875 -1.421875 13.15625 6.1875 
Q 5.515625 13.8125 5.515625 26.8125 
Q 5.515625 40.234375 12.765625 48.109375 
Q 20.015625 56 32.328125 56 
Q 43.359375 56 49.78125 48.890625 
Q 56.203125 41.796875 56.203125 29.59375 
z
M 47.21875 32.234375 
Q 47.125 39.59375 43.09375 43.984375 
Q 39.0625 48.390625 32.421875 48.390625 
Q 24.90625 48.390625 20.390625 44.140625 
Q 15.875 39.890625 15.1875 32.171875 
z
" id="DejaVuSans-65"/>
      <path d="M 45.40625 46.390625 
L 45.40625 75.984375 
L 54.390625 75.984375 
L 54.390625 0 
L 45.40625 0 
L 45.40625 8.203125 
Q 42.578125 3.328125 38.25 0.953125 
Q 33.9375 -1.421875 27.875 -1.421875 
Q 17.96875 -1.421875 11.734375 6.484375 
Q 5.515625 14.40625 5.515625 27.296875 
Q 5.515625 40.1875 11.734375 48.09375 
Q 17.96875 56 27.875 56 
Q 33.9375 56 38.25 53.625 
Q 42.578125 51.265625 45.40625 46.390625 
z
M 14.796875 27.296875 
Q 14.796875 17.390625 18.875 11.75 
Q 22.953125 6.109375 30.078125 6.109375 
Q 37.203125 6.109375 41.296875 11.75 
Q 45.40625 17.390625 45.40625 27.296875 
Q 45.40625 37.203125 41.296875 42.84375 
Q 37.203125 48.484375 30.078125 48.484375 
Q 22.953125 48.484375 18.875 42.84375 
Q 14.796875 37.203125 14.796875 27.296875 
z
" id="DejaVuSans-64"/>
      <path id="DejaVuSans-20"/>
      <path d="M 30.609375 48.390625 
Q 23.390625 48.390625 19.1875 42.75 
Q 14.984375 37.109375 14.984375 27.296875 
Q 14.984375 17.484375 19.15625 11.84375 
Q 23.34375 6.203125 30.609375 6.203125 
Q 37.796875 6.203125 41.984375 11.859375 
Q 46.1875 17.53125 46.1875 27.296875 
Q 46.1875 37.015625 41.984375 42.703125 
Q 37.796875 48.390625 30.609375 48.390625 
z
M 30.609375 56 
Q 42.328125 56 49.015625 48.375 
Q 55.71875 40.765625 55.71875 27.296875 
Q 55.71875 13.875 49.015625 6.21875 
Q 42.328125 -1.421875 30.609375 -1.421875 
Q 18.84375 -1.421875 12.171875 6.21875 
Q 5.515625 13.875 5.515625 27.296875 
Q 5.515625 40.765625 12.171875 48.375 
Q 18.84375 56 30.609375 56 
z
" id="DejaVuSans-6f"/>
      <path d="M 44.28125 53.078125 
L 44.28125 44.578125 
Q 40.484375 46.53125 36.375 47.5 
Q 32.28125 48.484375 27.875 48.484375 
Q 21.1875 48.484375 17.84375 46.4375 
Q 14.5 44.390625 14.5 40.28125 
Q 14.5 37.15625 16.890625 35.375 
Q 19.28125 33.59375 26.515625 31.984375 
L 29.59375 31.296875 
Q 39.15625 29.25 43.1875 25.515625 
Q 47.21875 21.78125 47.21875 15.09375 
Q 47.21875 7.46875 41.1875 3.015625 
Q 35.15625 -1.421875 24.609375 -1.421875 
Q 20.21875 -1.421875 15.453125 -0.5625 
Q 10.6875 0.296875 5.421875 2 
L 5.421875 11.28125 
Q 10.40625 8.6875 15.234375 7.390625 
Q 20.0625 6.109375 24.8125 6.109375 
Q 31.15625 6.109375 34.5625 8.28125 
Q 37.984375 10.453125 37.984375 14.40625 
Q 37.984375 18.0625 35.515625 20.015625 
Q 33.0625 21.96875 24.703125 23.78125 
L 21.578125 24.515625 
Q 13.234375 26.265625 9.515625 29.90625 
Q 5.8125 33.546875 5.8125 39.890625 
Q 5.8125 47.609375 11.28125 51.796875 
Q 16.75 56 26.8125 56 
Q 31.78125 56 36.171875 55.265625 
Q 40.578125 54.546875 44.28125 53.078125 
z
" id="DejaVuSans-73"/>
      <path d="M 48.78125 52.59375 
L 48.78125 44.1875 
Q 44.96875 46.296875 41.140625 47.34375 
Q 37.3125 48.390625 33.40625 48.390625 
Q 24.65625 48.390625 19.8125 42.84375 
Q 14.984375 37.3125 14.984375 27.296875 
Q 14.984375 17.28125 19.8125 11.734375 
Q 24.65625 6.203125 33.40625 6.203125 
Q 37.3125 6.203125 41.140625 7.25 
Q 44.96875 8.296875 48.78125 10.40625 
L 48.78125 2.09375 
Q 45.015625 0.34375 40.984375 -0.53125 
Q 36.96875 -1.421875 32.421875 -1.421875 
Q 20.0625 -1.421875 12.78125 6.34375 
Q 5.515625 14.109375 5.515625 27.296875 
Q 5.515625 40.671875 12.859375 48.328125 
Q 20.21875 56 33.015625 56 
Q 37.15625 56 41.109375 55.140625 
Q 45.0625 54.296875 48.78125 52.59375 
z
" id="DejaVuSans-63"/>
      <path d="M 9.421875 54.6875 
L 18.40625 54.6875 
L 18.40625 0 
L 9.421875 0 
z
M 9.421875 75.984375 
L 18.40625 75.984375 
L 18.40625 64.59375 
L 9.421875 64.59375 
z
" id="DejaVuSans-69"/>
      <path d="M 9.421875 75.984375 
L 18.40625 75.984375 
L 18.40625 0 
L 9.421875 0 
z
" id="DejaVuSans-6c"/>
      <path d="M 18.3125 70.21875 
L 18.3125 54.6875 
L 36.8125 54.6875 
L 36.8125 47.703125 
L 18.3125 47.703125 
L 18.3125 18.015625 
Q 18.3125 11.328125 20.140625 9.421875 
Q 21.96875 7.515625 27.59375 7.515625 
L 36.8125 7.515625 
L 36.8125 0 
L 27.59375 0 
Q 17.1875 0 13.234375 3.875 
Q 9.28125 7.765625 9.28125 18.015625 
L 9.28125 47.703125 
L 2.6875 47.703125 
L 2.6875 54.6875 
L 9.28125 54.6875 
L 9.28125 70.21875 
z
" id="DejaVuSans-74"/>
      <path d="M 54.890625 33.015625 
L 54.890625 0 
L 45.90625 0 
L 45.90625 32.71875 
Q 45.90625 40.484375 42.875 44.328125 
Q 39.84375 48.1875 33.796875 48.1875 
Q 26.515625 48.1875 22.3125 43.546875 
Q 18.109375 38.921875 18.109375 30.90625 
L 18.109375 0 
L 9.078125 0 
L 9.078125 54.6875 
L 18.109375 54.6875 
L 18.109375 46.1875 
Q 21.34375 51.125 25.703125 53.5625 
Q 30.078125 56 35.796875 56 
Q 45.21875 56 50.046875 50.171875 
Q 54.890625 44.34375 54.890625 33.015625 
z
" id="DejaVuSans-6e"/>
     </defs>
     <g transform="translate(20.2375 149.972312)rotate(-90)scale(0.1 -0.1)">
      <use xlink:href="#DejaVuSans-44"/>
      <use x="77.001953" xlink:href="#DejaVuSans-61"/>
      <use x="138.28125" xlink:href="#DejaVuSans-6d"/>
      <use x="235.693359" xlink:href="#DejaVuSans-70"/>
      <use x="299.169922" xlink:href="#DejaVuSans-65"/>
      <use x="360.693359" xlink:href="#DejaVuSans-64"/>
      <use x="424.169922" xlink:href="#DejaVuSans-20"/>
      <use x="455.957031" xlink:href="#DejaVuSans-6f"/>
      <use x="517.138672" xlink:href="#DejaVuSans-73"/>
      <use x="569.238281" xlink:href="#DejaVuSans-63"/>
      <use x="624.21875" xlink:href="#DejaVuSans-69"/>
      <use x="652.001953" xlink:href="#DejaVuSans-6c"/>
      <use x="679.785156" xlink:href="#DejaVuSans-6c"/>
      <use x="707.568359" xlink:href="#DejaVuSans-61"/>
      <use x="768.847656" xlink:href="#DejaVuSans-74"/>
      <use x="808.056641" xlink:href="#DejaVuSans-69"/>
      <use x="835.839844" xlink:href="#DejaVuSans-6f"/>
      <use x="897.021484" xlink:href="#DejaVuSans-6e"/>
     </g>
    </g>
   </g>
   <g id="line2d_11">
    <path clip-path="url(#pb848691a3d)" d="M 73.832727 46.970182 
L 80.45833 65.971764 
L 87.083933 99.78095 
L 93.709536 133.220572 
L 100.335139 154.051248 
L 106.960742 156.933818 
L 113.586345 144.120635 
L 120.211948 123.225151 
L 126.837551 103.43007 
L 133.463154 91.817921 
L 140.088757 91.152005 
L 146.71436 99.656695 
L 153.339963 112.508869 
L 159.965566 124.175662 
L 166.591169 130.581885 
L 173.216772 130.340822 
L 179.842375 124.768314 
L 186.467978 116.899555 
L 193.093581 110.054575 
L 199.719184 106.563705 
L 206.344787 107.092594 
L 212.97039 110.704517 
L 219.595993 115.500948 
L 226.221596 119.497874 
L 232.847199 121.371801 
L 239.472801 120.824936 
L 246.098404 118.505442 
L 252.724007 115.594256 
L 259.34961 113.272081 
L 265.975213 112.28487 
L 272.600816 112.749531 
L 279.226419 114.227021 
L 285.852022 115.986572 
L 292.477625 117.328502 
L 299.103228 117.836003 
L 305.728831 117.476327 
L 312.354434 116.541937 
L 318.980037 115.482836 
L 325.60564 114.711851 
L 332.231243 114.459561 
L 338.856846 114.723068 
L 345.482449 115.31017 
L 352.108052 115.945043 
L 358.733655 116.385201 
L 365.359258 116.504587 
L 371.984861 116.318477 
L 378.610464 115.951765 
L 385.236067 115.57276 
L 391.86167 115.323227 
L 398.487273 115.271106 
" style="fill:none;stroke:#1f77b4;stroke-linecap:square;stroke-width:1.5;"/>
    <defs>
     <path d="M 0 3 
C 0.795609 3 1.55874 2.683901 2.12132 2.12132 
C 2.683901 1.55874 3 0.795609 3 0 
C 3 -0.795609 2.683901 -1.55874 2.12132 -2.12132 
C 1.55874 -2.683901 0.795609 -3 0 -3 
C -0.795609 -3 -1.55874 -2.683901 -2.12132 -2.12132 
C -2.683901 -1.55874 -3 -0.795609 -3 0 
C -3 0.795609 -2.683901 1.55874 -2.12132 2.12132 
C -1.55874 2.683901 -0.795609 3 0 3 
z
" id="m59c432f710" style="stroke:#1f77b4;"/>
    </defs>
    <g clip-path="url(#pb848691a3d)">
     <use style="fill:#1f77b4;stroke:#1f77b4;" x="73.832727" xlink:href="#m59c432f710" y="46.970182"/>
     <use style="fill:#1f77b4;stroke:#1f77b4;" x="80.45833" xlink:href="#m59c432f710" y="65.971764"/>
     <use style="fill:#1f77b4;stroke:#1f77b4;" x="87.083933" xlink:href="#m59c432f710" y="99.78095"/>
     <use style="fill:#1f77b4;stroke:#1f77b4;" x="93.709536" xlink:href="#m59c432f710" y="133.220572"/>
     <use style="fill:#1f77b4;stroke:#1f77b4;" x="100.335139" xlink:href="#m59c432f710" y="154.051248"/>
     <use style="fill:#1f77b4;stroke:#1f77b4;" x="106.960742" xlink:href="#m59c432f710" y="156.933818"/>
     <use style="fill:#1f77b4;stroke:#1f77b4;" x="113.586345" xlink:href="#m59c432f710" y="144.120635"/>
     <use style="fill:#1f77b4;stroke:#1f77b4;" x="120.211948" xlink:href="#m59c432f710" y="123.225151"/>
     <use style="fill:#1f77b4;stroke:#1f77b4;" x="126.837551" xlink:href="#m59c432f710" y="103.43007"/>
     <use style="fill:#1f77b4;stroke:#1f77b4;" x="133.463154" xlink:href="#m59c432f710" y="91.817921"/>
     <use style="fill:#1f77b4;stroke:#1f77b4;" x="140.088757" xlink:href="#m59c432f710" y="91.152005"/>
     <use style="fill:#1f77b4;stroke:#1f77b4;" x="146.71436" xlink:href="#m59c432f710" y="99.656695"/>
     <use style="fill:#1f77b4;stroke:#1f77b4;" x="153.339963" xlink:href="#m59c432f710" y="112.508869"/>
     <use style="fill:#1f77b4;stroke:#1f77b4;" x="159.965566" xlink:href="#m59c432f710" y="124.175662"/>
     <use style="fill:#1f77b4;stroke:#1f77b4;" x="166.591169" xlink:href="#m59c432f710" y="130.581885"/>
     <use style="fill:#1f77b4;stroke:#1f77b4;" x="173.216772" xlink:href="#m59c432f710" y="130.340822"/>
     <use style="fill:#1f77b4;stroke:#1f77b4;" x="179.842375" xlink:href="#m59c432f710" y="124.768314"/>
     <use style="fill:#1f77b4;stroke:#1f77b4;" x="186.467978" xlink:href="#m59c432f710" y="116.899555"/>
     <use style="fill:#1f77b4;stroke:#1f77b4;" x="193.093581" xlink:href="#m59c432f710" y="110.054575"/>
     <use style="fill:#1f77b4;stroke:#1f77b4;" x="199.719184" xlink:href="#m59c432f710" y="106.563705"/>
     <use style="fill:#1f77b4;stroke:#1f77b4;" x="206.344787" xlink:href="#m59c432f710" y="107.092594"/>
     <use style="fill:#1f77b4;stroke:#1f77b4;" x="212.97039" xlink:href="#m59c432f710" y="110.704517"/>
     <use style="fill:#1f77b4;stroke:#1f77b4;" x="219.595993" xlink:href="#m59c432f710" y="115.500948"/>
     <use style="fill:#1f77b4;stroke:#1f77b4;" x="226.221596" xlink:href="#m59c432f710" y="119.497874"/>
     <use style="fill:#1f77b4;stroke:#1f77b4;" x="232.847199" xlink:href="#m59c432f710" y="121.371801"/>
     <use style="fill:#1f77b4;stroke:#1f77b4;" x="239.472801" xlink:href="#m59c432f710" y="120.824936"/>
     <use style="fill:#1f77b4;stroke:#1f77b4;" x="246.098404" xlink:href="#m59c432f710" y="118.505442"/>
     <use style="fill:#1f77b4;stroke:#1f77b4;" x="252.724007" xlink:href="#m59c432f710" y="115.594256"/>
     <use style="fill:#1f77b4;stroke:#1f77b4;" x="259.34961" xlink:href="#m59c432f710" y="113.272081"/>
     <use style="fill:#1f77b4;stroke:#1f77b4;" x="265.975213" xlink:href="#m59c432f710" y="112.28487"/>
     <use style="fill:#1f77b4;stroke:#1f77b4;" x="272.600816" xlink:href="#m59c432f710" y="112.749531"/>
     <use style="fill:#1f77b4;stroke:#1f77b4;" x="279.226419" xlink:href="#m59c432f710" y="114.227021"/>
     <use style="fill:#1f77b4;stroke:#1f77b4;" x="285.852022" xlink:href="#m59c432f710" y="115.986572"/>
     <use style="fill:#1f77b4;stroke:#1f77b4;" x="292.477625" xlink:href="#m59c432f710" y="117.328502"/>
     <use style="fill:#1f77b4;stroke:#1f77b4;" x="299.103228" xlink:href="#m59c432f710" y="117.836003"/>
     <use style="fill:#1f77b4;stroke:#1f77b4;" x="305.728831" xlink:href="#m59c432f710" y="117.476327"/>
     <use style="fill:#1f77b4;stroke:#1f77b4;" x="312.354434" xlink:href="#m59c432f710" y="116.541937"/>
     <use style="fill:#1f77b4;stroke:#1f77b4;" x="318.980037" xlink:href="#m59c432f710" y="115.482836"/>
     <use style="fill:#1f77b4;stroke:#1f77b4;" x="325.60564" xlink:href="#m59c432f710" y="114.711851"/>
     <use style="fill:#1f77b4;stroke:#1f77b4;" x="332.231243" xlink:href="#m59c432f710" y="114.459561"/>
     <use style="fill:#1f77b4;stroke:#1f77b4;" x="338.856846" xlink:href="#m59c432f710" y="114.723068"/>
     <use style="fill:#1f77b4;stroke:#1f77b4;" x="345.482449" xlink:href="#m59c432f710" y="115.31017"/>
     <use style="fill:#1f77b4;stroke:#1f77b4;" x="352.108052" xlink:href="#m59c432f710" y="115.945043"/>
     <use style="fill:#1f77b4;stroke:#1f77b4;" x="358.733655" xlink:href="#m59c432f710" y="116.385201"/>
     <use style="fill:#1f77b4;stroke:#1f77b4;" x="365.359258" xlink:href="#m59c432f710" y="116.504587"/>
     <use style="fill:#1f77b4;stroke:#1f77b4;" x="371.984861" xlink:href="#m59c432f710" y="116.318477"/>
     <use style="fill:#1f77b4;stroke:#1f77b4;" x="378.610464" xlink:href="#m59c432f710" y="115.951765"/>
     <use style="fill:#1f77b4;stroke:#1f77b4;" x="385.236067" xlink:href="#m59c432f710" y="115.57276"/>
     <use style="fill:#1f77b4;stroke:#1f77b4;" x="391.86167" xlink:href="#m59c432f710" y="115.323227"/>
     <use style="fill:#1f77b4;stroke:#1f77b4;" x="398.487273" xlink:href="#m59c432f710" y="115.271106"/>
    </g>
   </g>
   <g id="patch_3">
    <path d="M 57.6 162.432 
L 57.6 41.472 
" style="fill:none;stroke:#000000;stroke-linecap:square;stroke-linejoin:miter;stroke-width:0.8;"/>
   </g>
   <g id="patch_4">
    <path d="M 414.72 162.432 
L 414.72 41.472 
" style="fill:none;stroke:#000000;stroke-linecap:square;stroke-linejoin:miter;stroke-width:0.8;"/>
   </g>
   <g id="patch_5">
    <path d="M 57.6 162.432 
L 414.72 162.432 
" style="fill:none;stroke:#000000;stroke-linecap:square;stroke-linejoin:miter;stroke-width:0.8;"/>
   </g>
   <g id="patch_6">
    <path d="M 57.6 41.472 
L 414.72 41.472 
" style="fill:none;stroke:#000000;stroke-linecap:square;stroke-linejoin:miter;stroke-width:0.8;"/>
   </g>
   <g id="text_12">
    <!-- A tale of 2 subplots -->
    <defs>
     <path d="M 34.1875 63.1875 
L 20.796875 26.90625 
L 47.609375 26.90625 
z
M 28.609375 72.90625 
L 39.796875 72.90625 
L 67.578125 0 
L 57.328125 0 
L 50.6875 18.703125 
L 17.828125 18.703125 
L 11.1875 0 
L 0.78125 0 
z
" id="DejaVuSans-41"/>
     <path d="M 37.109375 75.984375 
L 37.109375 68.5 
L 28.515625 68.5 
Q 23.6875 68.5 21.796875 66.546875 
Q 19.921875 64.59375 19.921875 59.515625 
L 19.921875 54.6875 
L 34.71875 54.6875 
L 34.71875 47.703125 
L 19.921875 47.703125 
L 19.921875 0 
L 10.890625 0 
L 10.890625 47.703125 
L 2.296875 47.703125 
L 2.296875 54.6875 
L 10.890625 54.6875 
L 10.890625 58.5 
Q 10.890625 67.625 15.140625 71.796875 
Q 19.390625 75.984375 28.609375 75.984375 
z
" id="DejaVuSans-66"/>
     <path d="M 8.5 21.578125 
L 8.5 54.6875 
L 17.484375 54.6875 
L 17.484375 21.921875 
Q 17.484375 14.15625 20.5 10.265625 
Q 23.53125 6.390625 29.59375 6.390625 
Q 36.859375 6.390625 41.078125 11.03125 
Q 45.3125 15.671875 45.3125 23.6875 
L 45.3125 54.6875 
L 54.296875 54.6875 
L 54.296875 0 
L 45.3125 0 
L 45.3125 8.40625 
Q 42.046875 3.421875 37.71875 1 
Q 33.40625 -1.421875 27.6875 -1.421875 
Q 18.265625 -1.421875 13.375 4.4375 
Q 8.5 10.296875 8.5 21.578125 
z
M 31.109375 56 
z
" id="DejaVuSans-75"/>
     <path d="M 48.6875 27.296875 
Q 48.6875 37.203125 44.609375 42.84375 
Q 40.53125 48.484375 33.40625 48.484375 
Q 26.265625 48.484375 22.1875 42.84375 
Q 18.109375 37.203125 18.109375 27.296875 
Q 18.109375 17.390625 22.1875 11.75 
Q 26.265625 6.109375 33.40625 6.109375 
Q 40.53125 6.109375 44.609375 11.75 
Q 48.6875 17.390625 48.6875 27.296875 
z
M 18.109375 46.390625 
Q 20.953125 51.265625 25.265625 53.625 
Q 29.59375 56 35.59375 56 
Q 45.5625 56 51.78125 48.09375 
Q 58.015625 40.1875 58.015625 27.296875 
Q 58.015625 14.40625 51.78125 6.484375 
Q 45.5625 -1.421875 35.59375 -1.421875 
Q 29.59375 -1.421875 25.265625 0.953125 
Q 20.953125 3.328125 18.109375 8.203125 
L 18.109375 0 
L 9.078125 0 
L 9.078125 75.984375 
L 18.109375 75.984375 
z
" id="DejaVuSans-62"/>
    </defs>
    <g transform="translate(178.077188 35.472)scale(0.12 -0.12)">
     <use xlink:href="#DejaVuSans-41"/>
     <use x="68.408203" xlink:href="#DejaVuSans-20"/>
     <use x="100.195312" xlink:href="#DejaVuSans-74"/>
     <use x="139.404297" xlink:href="#DejaVuSans-61"/>
     <use x="200.683594" xlink:href="#DejaVuSans-6c"/>
     <use x="228.466797" xlink:href="#DejaVuSans-65"/>
     <use x="289.990234" xlink:href="#DejaVuSans-20"/>
     <use x="321.777344" xlink:href="#DejaVuSans-6f"/>
     <use x="382.958984" xlink:href="#DejaVuSans-66"/>
     <use x="418.164062" xlink:href="#DejaVuSans-20"/>
     <use x="449.951172" xlink:href="#DejaVuSans-32"/>
     <use x="513.574219" xlink:href="#DejaVuSans-20"/>
     <use x="545.361328" xlink:href="#DejaVuSans-73"/>
     <use x="597.460938" xlink:href="#DejaVuSans-75"/>
     <use x="660.839844" xlink:href="#DejaVuSans-62"/>
     <use x="724.316406" xlink:href="#DejaVuSans-70"/>
     <use x="787.792969" xlink:href="#DejaVuSans-6c"/>
     <use x="815.576172" xlink:href="#DejaVuSans-6f"/>
     <use x="876.757812" xlink:href="#DejaVuSans-74"/>
     <use x="915.966797" xlink:href="#DejaVuSans-73"/>
    </g>
   </g>
  </g>
  <g id="axes_2">
   <g id="patch_7">
    <path d="M 57.6 307.584 
L 414.72 307.584 
L 414.72 186.624 
L 57.6 186.624 
z
" style="fill:#ffffff;"/>
   </g>
   <g id="matplotlib.axis_3">
    <g id="xtick_7">
     <g id="line2d_12">
      <g>
       <use style="stroke:#000000;stroke-width:0.8;" x="73.832727" xlink:href="#m586a817011" y="307.584"/>
      </g>
     </g>
     <g id="text_13">
      <!-- 0.00 -->
      <g transform="translate(62.699915 322.182437)scale(0.1 -0.1)">
       <use xlink:href="#DejaVuSans-30"/>
       <use x="63.623047" xlink:href="#DejaVuSans-2e"/>
       <use x="95.410156" xlink:href="#DejaVuSans-30"/>
       <use x="159.033203" xlink:href="#DejaVuSans-30"/>
      </g>
     </g>
    </g>
    <g id="xtick_8">
     <g id="line2d_13">
      <g>
       <use style="stroke:#000000;stroke-width:0.8;" x="114.414545" xlink:href="#m586a817011" y="307.584"/>
      </g>
     </g>
     <g id="text_14">
      <!-- 0.25 -->
      <g transform="translate(103.281733 322.182437)scale(0.1 -0.1)">
       <use xlink:href="#DejaVuSans-30"/>
       <use x="63.623047" xlink:href="#DejaVuSans-2e"/>
       <use x="95.410156" xlink:href="#DejaVuSans-32"/>
       <use x="159.033203" xlink:href="#DejaVuSans-35"/>
      </g>
     </g>
    </g>
    <g id="xtick_9">
     <g id="line2d_14">
      <g>
       <use style="stroke:#000000;stroke-width:0.8;" x="154.996364" xlink:href="#m586a817011" y="307.584"/>
      </g>
     </g>
     <g id="text_15">
      <!-- 0.50 -->
      <g transform="translate(143.863551 322.182437)scale(0.1 -0.1)">
       <use xlink:href="#DejaVuSans-30"/>
       <use x="63.623047" xlink:href="#DejaVuSans-2e"/>
       <use x="95.410156" xlink:href="#DejaVuSans-35"/>
       <use x="159.033203" xlink:href="#DejaVuSans-30"/>
      </g>
     </g>
    </g>
    <g id="xtick_10">
     <g id="line2d_15">
      <g>
       <use style="stroke:#000000;stroke-width:0.8;" x="195.578182" xlink:href="#m586a817011" y="307.584"/>
      </g>
     </g>
     <g id="text_16">
      <!-- 0.75 -->
      <defs>
       <path d="M 8.203125 72.90625 
L 55.078125 72.90625 
L 55.078125 68.703125 
L 28.609375 0 
L 18.3125 0 
L 43.21875 64.59375 
L 8.203125 64.59375 
z
" id="DejaVuSans-37"/>
      </defs>
      <g transform="translate(184.445369 322.182437)scale(0.1 -0.1)">
       <use xlink:href="#DejaVuSans-30"/>
       <use x="63.623047" xlink:href="#DejaVuSans-2e"/>
       <use x="95.410156" xlink:href="#DejaVuSans-37"/>
       <use x="159.033203" xlink:href="#DejaVuSans-35"/>
      </g>
     </g>
    </g>
    <g id="xtick_11">
     <g id="line2d_16">
      <g>
       <use style="stroke:#000000;stroke-width:0.8;" x="236.16" xlink:href="#m586a817011" y="307.584"/>
      </g>
     </g>
     <g id="text_17">
      <!-- 1.00 -->
      <g transform="translate(225.027187 322.182437)scale(0.1 -0.1)">
       <use xlink:href="#DejaVuSans-31"/>
       <use x="63.623047" xlink:href="#DejaVuSans-2e"/>
       <use x="95.410156" xlink:href="#DejaVuSans-30"/>
       <use x="159.033203" xlink:href="#DejaVuSans-30"/>
      </g>
     </g>
    </g>
    <g id="xtick_12">
     <g id="line2d_17">
      <g>
       <use style="stroke:#000000;stroke-width:0.8;" x="276.741818" xlink:href="#m586a817011" y="307.584"/>
      </g>
     </g>
     <g id="text_18">
      <!-- 1.25 -->
      <g transform="translate(265.609006 322.182437)scale(0.1 -0.1)">
       <use xlink:href="#DejaVuSans-31"/>
       <use x="63.623047" xlink:href="#DejaVuSans-2e"/>
       <use x="95.410156" xlink:href="#DejaVuSans-32"/>
       <use x="159.033203" xlink:href="#DejaVuSans-35"/>
      </g>
     </g>
    </g>
    <g id="xtick_13">
     <g id="line2d_18">
      <g>
       <use style="stroke:#000000;stroke-width:0.8;" x="317.323636" xlink:href="#m586a817011" y="307.584"/>
      </g>
     </g>
     <g id="text_19">
      <!-- 1.50 -->
      <g transform="translate(306.190824 322.182437)scale(0.1 -0.1)">
       <use xlink:href="#DejaVuSans-31"/>
       <use x="63.623047" xlink:href="#DejaVuSans-2e"/>
       <use x="95.410156" xlink:href="#DejaVuSans-35"/>
       <use x="159.033203" xlink:href="#DejaVuSans-30"/>
      </g>
     </g>
    </g>
    <g id="xtick_14">
     <g id="line2d_19">
      <g>
       <use style="stroke:#000000;stroke-width:0.8;" x="357.905455" xlink:href="#m586a817011" y="307.584"/>
      </g>
     </g>
     <g id="text_20">
      <!-- 1.75 -->
      <g transform="translate(346.772642 322.182437)scale(0.1 -0.1)">
       <use xlink:href="#DejaVuSans-31"/>
       <use x="63.623047" xlink:href="#DejaVuSans-2e"/>
       <use x="95.410156" xlink:href="#DejaVuSans-37"/>
       <use x="159.033203" xlink:href="#DejaVuSans-35"/>
      </g>
     </g>
    </g>
    <g id="xtick_15">
     <g id="line2d_20">
      <g>
       <use style="stroke:#000000;stroke-width:0.8;" x="398.487273" xlink:href="#m586a817011" y="307.584"/>
      </g>
     </g>
     <g id="text_21">
      <!-- 2.00 -->
      <g transform="translate(387.35446 322.182437)scale(0.1 -0.1)">
       <use xlink:href="#DejaVuSans-32"/>
       <use x="63.623047" xlink:href="#DejaVuSans-2e"/>
       <use x="95.410156" xlink:href="#DejaVuSans-30"/>
       <use x="159.033203" xlink:href="#DejaVuSans-30"/>
      </g>
     </g>
    </g>
    <g id="text_22">
     <!-- time (s) -->
     <defs>
      <path d="M 31 75.875 
Q 24.46875 64.65625 21.28125 53.65625 
Q 18.109375 42.671875 18.109375 31.390625 
Q 18.109375 20.125 21.3125 9.0625 
Q 24.515625 -2 31 -13.1875 
L 23.1875 -13.1875 
Q 15.875 -1.703125 12.234375 9.375 
Q 8.59375 20.453125 8.59375 31.390625 
Q 8.59375 42.28125 12.203125 53.3125 
Q 15.828125 64.359375 23.1875 75.875 
z
" id="DejaVuSans-28"/>
      <path d="M 8.015625 75.875 
L 15.828125 75.875 
Q 23.140625 64.359375 26.78125 53.3125 
Q 30.421875 42.28125 30.421875 31.390625 
Q 30.421875 20.453125 26.78125 9.375 
Q 23.140625 -1.703125 15.828125 -13.1875 
L 8.015625 -13.1875 
Q 14.5 -2 17.703125 9.0625 
Q 20.90625 20.125 20.90625 31.390625 
Q 20.90625 42.671875 17.703125 53.65625 
Q 14.5 64.65625 8.015625 75.875 
z
" id="DejaVuSans-29"/>
     </defs>
     <g transform="translate(216.768594 335.860562)scale(0.1 -0.1)">
      <use xlink:href="#DejaVuSans-74"/>
      <use x="39.208984" xlink:href="#DejaVuSans-69"/>
      <use x="66.992188" xlink:href="#DejaVuSans-6d"/>
      <use x="164.404297" xlink:href="#DejaVuSans-65"/>
      <use x="225.927734" xlink:href="#DejaVuSans-20"/>
      <use x="257.714844" xlink:href="#DejaVuSans-28"/>
      <use x="296.728516" xlink:href="#DejaVuSans-73"/>
      <use x="348.828125" xlink:href="#DejaVuSans-29"/>
     </g>
    </g>
   </g>
   <g id="matplotlib.axis_4">
    <g id="ytick_5">
     <g id="line2d_21">
      <g>
       <use style="stroke:#000000;stroke-width:0.8;" x="57.6" xlink:href="#m3738303ea7" y="302.1989"/>
      </g>
     </g>
     <g id="text_23">
      <!-- −1.0 -->
      <g transform="translate(26.317187 305.998119)scale(0.1 -0.1)">
       <use xlink:href="#DejaVuSans-2212"/>
       <use x="83.789062" xlink:href="#DejaVuSans-31"/>
       <use x="147.412109" xlink:href="#DejaVuSans-2e"/>
       <use x="179.199219" xlink:href="#DejaVuSans-30"/>
      </g>
     </g>
    </g>
    <g id="ytick_6">
     <g id="line2d_22">
      <g>
       <use style="stroke:#000000;stroke-width:0.8;" x="57.6" xlink:href="#m3738303ea7" y="274.679721"/>
      </g>
     </g>
     <g id="text_24">
      <!-- −0.5 -->
      <g transform="translate(26.317187 278.478939)scale(0.1 -0.1)">
       <use xlink:href="#DejaVuSans-2212"/>
       <use x="83.789062" xlink:href="#DejaVuSans-30"/>
       <use x="147.412109" xlink:href="#DejaVuSans-2e"/>
       <use x="179.199219" xlink:href="#DejaVuSans-35"/>
      </g>
     </g>
    </g>
    <g id="ytick_7">
     <g id="line2d_23">
      <g>
       <use style="stroke:#000000;stroke-width:0.8;" x="57.6" xlink:href="#m3738303ea7" y="247.160541"/>
      </g>
     </g>
     <g id="text_25">
      <!-- 0.0 -->
      <g transform="translate(34.696875 250.95976)scale(0.1 -0.1)">
       <use xlink:href="#DejaVuSans-30"/>
       <use x="63.623047" xlink:href="#DejaVuSans-2e"/>
       <use x="95.410156" xlink:href="#DejaVuSans-30"/>
      </g>
     </g>
    </g>
    <g id="ytick_8">
     <g id="line2d_24">
      <g>
       <use style="stroke:#000000;stroke-width:0.8;" x="57.6" xlink:href="#m3738303ea7" y="219.641361"/>
      </g>
     </g>
     <g id="text_26">
      <!-- 0.5 -->
      <g transform="translate(34.696875 223.44058)scale(0.1 -0.1)">
       <use xlink:href="#DejaVuSans-30"/>
       <use x="63.623047" xlink:href="#DejaVuSans-2e"/>
       <use x="95.410156" xlink:href="#DejaVuSans-35"/>
      </g>
     </g>
    </g>
    <g id="ytick_9">
     <g id="line2d_25">
      <g>
       <use style="stroke:#000000;stroke-width:0.8;" x="57.6" xlink:href="#m3738303ea7" y="192.122182"/>
      </g>
     </g>
     <g id="text_27">
      <!-- 1.0 -->
      <g transform="translate(34.696875 195.921401)scale(0.1 -0.1)">
       <use xlink:href="#DejaVuSans-31"/>
       <use x="63.623047" xlink:href="#DejaVuSans-2e"/>
       <use x="95.410156" xlink:href="#DejaVuSans-30"/>
      </g>
     </g>
    </g>
    <g id="text_28">
     <!-- Undamped -->
     <defs>
      <path d="M 8.6875 72.90625 
L 18.609375 72.90625 
L 18.609375 28.609375 
Q 18.609375 16.890625 22.84375 11.734375 
Q 27.09375 6.59375 36.625 6.59375 
Q 46.09375 6.59375 50.34375 11.734375 
Q 54.59375 16.890625 54.59375 28.609375 
L 54.59375 72.90625 
L 64.5 72.90625 
L 64.5 27.390625 
Q 64.5 13.140625 57.4375 5.859375 
Q 50.390625 -1.421875 36.625 -1.421875 
Q 22.796875 -1.421875 15.734375 5.859375 
Q 8.6875 13.140625 8.6875 27.390625 
z
" id="DejaVuSans-55"/>
     </defs>
     <g transform="translate(20.2375 274.465719)rotate(-90)scale(0.1 -0.1)">
      <use xlink:href="#DejaVuSans-55"/>
      <use x="73.193359" xlink:href="#DejaVuSans-6e"/>
      <use x="136.572266" xlink:href="#DejaVuSans-64"/>
      <use x="200.048828" xlink:href="#DejaVuSans-61"/>
      <use x="261.328125" xlink:href="#DejaVuSans-6d"/>
      <use x="358.740234" xlink:href="#DejaVuSans-70"/>
      <use x="422.216797" xlink:href="#DejaVuSans-65"/>
      <use x="483.740234" xlink:href="#DejaVuSans-64"/>
     </g>
    </g>
   </g>
   <g id="line2d_26">
    <path clip-path="url(#p5c1bfe967f)" d="M 73.832727 192.122182 
L 80.45833 193.922219 
L 87.083933 199.204589 
L 93.709536 207.623771 
L 100.335139 218.629065 
L 106.960742 231.50061 
L 113.586345 245.396475 
L 120.211948 259.407728 
L 126.837551 272.61789 
L 133.463154 284.162879 
L 140.088757 293.287535 
L 146.71436 299.395012 
L 153.339963 302.085818 
L 159.965566 301.183947 
L 166.591169 296.748389 
L 173.216772 289.069277 
L 179.842375 278.648903 
L 186.467978 266.168867 
L 193.093581 252.445491 
L 199.719184 238.376425 
L 206.344787 224.88193 
L 212.97039 212.844685 
L 219.595993 203.05205 
L 226.221596 196.144564 
L 232.847199 192.574046 
L 239.472801 192.574046 
L 246.098404 196.144564 
L 252.724007 203.05205 
L 259.34961 212.844685 
L 265.975213 224.88193 
L 272.600816 238.376425 
L 279.226419 252.445491 
L 285.852022 266.168867 
L 292.477625 278.648903 
L 299.103228 289.069277 
L 305.728831 296.748389 
L 312.354434 301.183947 
L 318.980037 302.085818 
L 325.60564 299.395012 
L 332.231243 293.287535 
L 338.856846 284.162879 
L 345.482449 272.61789 
L 352.108052 259.407728 
L 358.733655 245.396475 
L 365.359258 231.50061 
L 371.984861 218.629065 
L 378.610464 207.623771 
L 385.236067 199.204589 
L 391.86167 193.922219 
L 398.487273 192.122182 
" style="fill:none;stroke:#1f77b4;stroke-linecap:square;stroke-width:1.5;"/>
    <defs>
     <path d="M 0 1.5 
C 0.397805 1.5 0.77937 1.341951 1.06066 1.06066 
C 1.341951 0.77937 1.5 0.397805 1.5 0 
C 1.5 -0.397805 1.341951 -0.77937 1.06066 -1.06066 
C 0.77937 -1.341951 0.397805 -1.5 0 -1.5 
C -0.397805 -1.5 -0.77937 -1.341951 -1.06066 -1.06066 
C -1.341951 -0.77937 -1.5 -0.397805 -1.5 0 
C -1.5 0.397805 -1.341951 0.77937 -1.06066 1.06066 
C -0.77937 1.341951 -0.397805 1.5 0 1.5 
z
" id="mfa154252cf" style="stroke:#1f77b4;"/>
    </defs>
    <g clip-path="url(#p5c1bfe967f)">
     <use style="fill:#1f77b4;stroke:#1f77b4;" x="73.832727" xlink:href="#mfa154252cf" y="192.122182"/>
     <use style="fill:#1f77b4;stroke:#1f77b4;" x="80.45833" xlink:href="#mfa154252cf" y="193.922219"/>
     <use style="fill:#1f77b4;stroke:#1f77b4;" x="87.083933" xlink:href="#mfa154252cf" y="199.204589"/>
     <use style="fill:#1f77b4;stroke:#1f77b4;" x="93.709536" xlink:href="#mfa154252cf" y="207.623771"/>
     <use style="fill:#1f77b4;stroke:#1f77b4;" x="100.335139" xlink:href="#mfa154252cf" y="218.629065"/>
     <use style="fill:#1f77b4;stroke:#1f77b4;" x="106.960742" xlink:href="#mfa154252cf" y="231.50061"/>
     <use style="fill:#1f77b4;stroke:#1f77b4;" x="113.586345" xlink:href="#mfa154252cf" y="245.396475"/>
     <use style="fill:#1f77b4;stroke:#1f77b4;" x="120.211948" xlink:href="#mfa154252cf" y="259.407728"/>
     <use style="fill:#1f77b4;stroke:#1f77b4;" x="126.837551" xlink:href="#mfa154252cf" y="272.61789"/>
     <use style="fill:#1f77b4;stroke:#1f77b4;" x="133.463154" xlink:href="#mfa154252cf" y="284.162879"/>
     <use style="fill:#1f77b4;stroke:#1f77b4;" x="140.088757" xlink:href="#mfa154252cf" y="293.287535"/>
     <use style="fill:#1f77b4;stroke:#1f77b4;" x="146.71436" xlink:href="#mfa154252cf" y="299.395012"/>
     <use style="fill:#1f77b4;stroke:#1f77b4;" x="153.339963" xlink:href="#mfa154252cf" y="302.085818"/>
     <use style="fill:#1f77b4;stroke:#1f77b4;" x="159.965566" xlink:href="#mfa154252cf" y="301.183947"/>
     <use style="fill:#1f77b4;stroke:#1f77b4;" x="166.591169" xlink:href="#mfa154252cf" y="296.748389"/>
     <use style="fill:#1f77b4;stroke:#1f77b4;" x="173.216772" xlink:href="#mfa154252cf" y="289.069277"/>
     <use style="fill:#1f77b4;stroke:#1f77b4;" x="179.842375" xlink:href="#mfa154252cf" y="278.648903"/>
     <use style="fill:#1f77b4;stroke:#1f77b4;" x="186.467978" xlink:href="#mfa154252cf" y="266.168867"/>
     <use style="fill:#1f77b4;stroke:#1f77b4;" x="193.093581" xlink:href="#mfa154252cf" y="252.445491"/>
     <use style="fill:#1f77b4;stroke:#1f77b4;" x="199.719184" xlink:href="#mfa154252cf" y="238.376425"/>
     <use style="fill:#1f77b4;stroke:#1f77b4;" x="206.344787" xlink:href="#mfa154252cf" y="224.88193"/>
     <use style="fill:#1f77b4;stroke:#1f77b4;" x="212.97039" xlink:href="#mfa154252cf" y="212.844685"/>
     <use style="fill:#1f77b4;stroke:#1f77b4;" x="219.595993" xlink:href="#mfa154252cf" y="203.05205"/>
     <use style="fill:#1f77b4;stroke:#1f77b4;" x="226.221596" xlink:href="#mfa154252cf" y="196.144564"/>
     <use style="fill:#1f77b4;stroke:#1f77b4;" x="232.847199" xlink:href="#mfa154252cf" y="192.574046"/>
     <use style="fill:#1f77b4;stroke:#1f77b4;" x="239.472801" xlink:href="#mfa154252cf" y="192.574046"/>
     <use style="fill:#1f77b4;stroke:#1f77b4;" x="246.098404" xlink:href="#mfa154252cf" y="196.144564"/>
     <use style="fill:#1f77b4;stroke:#1f77b4;" x="252.724007" xlink:href="#mfa154252cf" y="203.05205"/>
     <use style="fill:#1f77b4;stroke:#1f77b4;" x="259.34961" xlink:href="#mfa154252cf" y="212.844685"/>
     <use style="fill:#1f77b4;stroke:#1f77b4;" x="265.975213" xlink:href="#mfa154252cf" y="224.88193"/>
     <use style="fill:#1f77b4;stroke:#1f77b4;" x="272.600816" xlink:href="#mfa154252cf" y="238.376425"/>
     <use style="fill:#1f77b4;stroke:#1f77b4;" x="279.226419" xlink:href="#mfa154252cf" y="252.445491"/>
     <use style="fill:#1f77b4;stroke:#1f77b4;" x="285.852022" xlink:href="#mfa154252cf" y="266.168867"/>
     <use style="fill:#1f77b4;stroke:#1f77b4;" x="292.477625" xlink:href="#mfa154252cf" y="278.648903"/>
     <use style="fill:#1f77b4;stroke:#1f77b4;" x="299.103228" xlink:href="#mfa154252cf" y="289.069277"/>
     <use style="fill:#1f77b4;stroke:#1f77b4;" x="305.728831" xlink:href="#mfa154252cf" y="296.748389"/>
     <use style="fill:#1f77b4;stroke:#1f77b4;" x="312.354434" xlink:href="#mfa154252cf" y="301.183947"/>
     <use style="fill:#1f77b4;stroke:#1f77b4;" x="318.980037" xlink:href="#mfa154252cf" y="302.085818"/>
     <use style="fill:#1f77b4;stroke:#1f77b4;" x="325.60564" xlink:href="#mfa154252cf" y="299.395012"/>
     <use style="fill:#1f77b4;stroke:#1f77b4;" x="332.231243" xlink:href="#mfa154252cf" y="293.287535"/>
     <use style="fill:#1f77b4;stroke:#1f77b4;" x="338.856846" xlink:href="#mfa154252cf" y="284.162879"/>
     <use style="fill:#1f77b4;stroke:#1f77b4;" x="345.482449" xlink:href="#mfa154252cf" y="272.61789"/>
     <use style="fill:#1f77b4;stroke:#1f77b4;" x="352.108052" xlink:href="#mfa154252cf" y="259.407728"/>
     <use style="fill:#1f77b4;stroke:#1f77b4;" x="358.733655" xlink:href="#mfa154252cf" y="245.396475"/>
     <use style="fill:#1f77b4;stroke:#1f77b4;" x="365.359258" xlink:href="#mfa154252cf" y="231.50061"/>
     <use style="fill:#1f77b4;stroke:#1f77b4;" x="371.984861" xlink:href="#mfa154252cf" y="218.629065"/>
     <use style="fill:#1f77b4;stroke:#1f77b4;" x="378.610464" xlink:href="#mfa154252cf" y="207.623771"/>
     <use style="fill:#1f77b4;stroke:#1f77b4;" x="385.236067" xlink:href="#mfa154252cf" y="199.204589"/>
     <use style="fill:#1f77b4;stroke:#1f77b4;" x="391.86167" xlink:href="#mfa154252cf" y="193.922219"/>
     <use style="fill:#1f77b4;stroke:#1f77b4;" x="398.487273" xlink:href="#mfa154252cf" y="192.122182"/>
    </g>
   </g>
   <g id="patch_8">
    <path d="M 57.6 307.584 
L 57.6 186.624 
" style="fill:none;stroke:#000000;stroke-linecap:square;stroke-linejoin:miter;stroke-width:0.8;"/>
   </g>
   <g id="patch_9">
    <path d="M 414.72 307.584 
L 414.72 186.624 
" style="fill:none;stroke:#000000;stroke-linecap:square;stroke-linejoin:miter;stroke-width:0.8;"/>
   </g>
   <g id="patch_10">
    <path d="M 57.6 307.584 
L 414.72 307.584 
" style="fill:none;stroke:#000000;stroke-linecap:square;stroke-linejoin:miter;stroke-width:0.8;"/>
   </g>
   <g id="patch_11">
    <path d="M 57.6 186.624 
L 414.72 186.624 
" style="fill:none;stroke:#000000;stroke-linecap:square;stroke-linejoin:miter;stroke-width:0.8;"/>
   </g>
  </g>
 </g>
 <defs>
  <clipPath id="pb848691a3d">
   <rect height="120.96" width="357.12" x="57.6" y="41.472"/>
  </clipPath>
  <clipPath id="p5c1bfe967f">
   <rect height="120.96" width="357.12" x="57.6" y="186.624"/>
  </clipPath>
 </defs>
</svg>
